<svg xmlns="http://www.w3.org/2000/svg" viewBox="0 0 30.6 55.2">
  <g fill="#FF1654">
    <path d="M.6 22C.6 10.4 15.2.8 15.2.8S29.9 9.5 29.9 22c0 15.9-14.6 25.6-14.6 25.6S.6 37.4.6 22z"/>
    <path d="M.6 22C.6 10.4 15.7 3.8 15.7 3.8S29.9 9.5 29.9 22c0 15.9-14.6 22.5-14.6 22.5S.6 37.4.6 22z"/>
  </g>
  <path fill="#683B11" d="M26.3 18.5c-.9 1.3-2.5 3.1-4.5 4.6-.1 0-.1.1-.2.1 0-.9-.1-2.1-.1-3.2 0-1.5.1-3.1.2-4.1 0-.2-.3-.2-.3-.1-.4.9-.9 8-.8 8.1-1.1.8-3.1 2.1-4.2 2.3-.2-4.6-.1-8.7-.3-11.9 0-.9-.3-.8-.4.1 0 1.8-.9 4.3-1 6.7-.6-.5-1.4-1.1-2.1-1.7-1-.9-1.8-1.9-2.3-2.6-.1-.1-.4 0-.3.1.2.9.7 2.2 1.4 3.4.7 1.2 2.4 2.3 3.2 3 .2.2-.2 10.7-.3 10.6-1-.4-2.3-1-3.6-1.8 0-.1-2.1-2.8-2.6-6.7 0-.1-.4 0-.3.1.1 1.2.4 3.2.6 5-.2-.2-.4-.3-.6-.5-1.1-1-2.1-2-2.8-3.1-.8-1.1-1.4-2.1-1.8-3-.2-.3-.5-.2-.4.1.3.9.7 2.1 1.4 3.4.7 1.2 1.5 2.5 2.6 3.7 2.1 2.4 5.4 4.4 7.5 5.2 0 0-1.2 11.6-1.3 19h3.7c0-5.9-.3-13.7-.1-13.8 1.1-.5 2.6-1.5 3.4-3 .9-1.5 1.3-2.9 1.4-3.9 0-.2-.1-.2-.2-.1-.4.9-1.2 2.2-2.2 3.3-.9 1-1.7 1.6-2.6 2-.1-4 0-11.2.6-11.4 1.7-.7 4-2.2 5.8-4.1 1.8-1.9 3.1-4.1 3.8-5.6.1-.2-.1-.4-.3-.2z"/>
</svg>
